<mxfile host="app.diagrams.net" modified="2023-08-26T23:46:15.224Z" agent="Mozilla/5.0 (Macintosh; Intel Mac OS X 10_15_7) AppleWebKit/537.36 (KHTML, like Gecko) Chrome/115.0.0.0 Safari/537.36" etag="ZhAc3HQUj8q65OFCVVZ5" version="21.6.9" type="github">
  <diagram id="C5RBs43oDa-KdzZeNtuy" name="Page-1">
    <mxGraphModel dx="2086" dy="710" grid="1" gridSize="10" guides="1" tooltips="1" connect="1" arrows="1" fold="1" page="1" pageScale="1" pageWidth="827" pageHeight="1169" math="0" shadow="0">
      <root>
        <mxCell id="WIyWlLk6GJQsqaUBKTNV-0" />
        <mxCell id="WIyWlLk6GJQsqaUBKTNV-1" parent="WIyWlLk6GJQsqaUBKTNV-0" />
        <mxCell id="VAbePePrgSVZJEQ0e8aC-19" value="" style="edgeStyle=orthogonalEdgeStyle;rounded=0;orthogonalLoop=1;jettySize=auto;html=1;" edge="1" parent="WIyWlLk6GJQsqaUBKTNV-1" source="WIyWlLk6GJQsqaUBKTNV-3" target="VAbePePrgSVZJEQ0e8aC-10">
          <mxGeometry relative="1" as="geometry" />
        </mxCell>
        <mxCell id="WIyWlLk6GJQsqaUBKTNV-3" value="Create Spring boot porject" style="rounded=1;whiteSpace=wrap;html=1;fontSize=12;glass=0;strokeWidth=1;shadow=0;" parent="WIyWlLk6GJQsqaUBKTNV-1" vertex="1">
          <mxGeometry x="320" y="80" width="120" height="40" as="geometry" />
        </mxCell>
        <mxCell id="VAbePePrgSVZJEQ0e8aC-0" value="Using IDE build-in function with&amp;nbsp; maven" style="text;html=1;strokeColor=none;fillColor=none;align=center;verticalAlign=middle;whiteSpace=wrap;rounded=0;" vertex="1" parent="WIyWlLk6GJQsqaUBKTNV-1">
          <mxGeometry x="440" y="85" width="120" height="30" as="geometry" />
        </mxCell>
        <mxCell id="VAbePePrgSVZJEQ0e8aC-10" value="Dependency with pom.xml" style="rounded=1;whiteSpace=wrap;html=1;" vertex="1" parent="WIyWlLk6GJQsqaUBKTNV-1">
          <mxGeometry x="160" y="80" width="120" height="40" as="geometry" />
        </mxCell>
        <mxCell id="VAbePePrgSVZJEQ0e8aC-23" style="edgeStyle=orthogonalEdgeStyle;rounded=0;orthogonalLoop=1;jettySize=auto;html=1;exitX=0.5;exitY=0;exitDx=0;exitDy=0;" edge="1" parent="WIyWlLk6GJQsqaUBKTNV-1" source="VAbePePrgSVZJEQ0e8aC-11">
          <mxGeometry relative="1" as="geometry">
            <mxPoint x="380" y="120" as="targetPoint" />
          </mxGeometry>
        </mxCell>
        <mxCell id="VAbePePrgSVZJEQ0e8aC-49" value="" style="edgeStyle=orthogonalEdgeStyle;rounded=0;orthogonalLoop=1;jettySize=auto;html=1;" edge="1" parent="WIyWlLk6GJQsqaUBKTNV-1" source="VAbePePrgSVZJEQ0e8aC-11" target="VAbePePrgSVZJEQ0e8aC-12">
          <mxGeometry relative="1" as="geometry" />
        </mxCell>
        <mxCell id="VAbePePrgSVZJEQ0e8aC-11" value="controller" style="rounded=1;whiteSpace=wrap;html=1;shadow=0;flipH=1;" vertex="1" parent="WIyWlLk6GJQsqaUBKTNV-1">
          <mxGeometry x="-160" y="230" width="120" height="40" as="geometry" />
        </mxCell>
        <mxCell id="VAbePePrgSVZJEQ0e8aC-22" style="edgeStyle=orthogonalEdgeStyle;rounded=0;orthogonalLoop=1;jettySize=auto;html=1;exitX=0.5;exitY=0;exitDx=0;exitDy=0;entryX=0.5;entryY=1;entryDx=0;entryDy=0;" edge="1" parent="WIyWlLk6GJQsqaUBKTNV-1" source="VAbePePrgSVZJEQ0e8aC-12" target="WIyWlLk6GJQsqaUBKTNV-3">
          <mxGeometry relative="1" as="geometry" />
        </mxCell>
        <mxCell id="VAbePePrgSVZJEQ0e8aC-50" value="" style="edgeStyle=orthogonalEdgeStyle;rounded=0;orthogonalLoop=1;jettySize=auto;html=1;" edge="1" parent="WIyWlLk6GJQsqaUBKTNV-1" source="VAbePePrgSVZJEQ0e8aC-12" target="VAbePePrgSVZJEQ0e8aC-13">
          <mxGeometry relative="1" as="geometry" />
        </mxCell>
        <mxCell id="VAbePePrgSVZJEQ0e8aC-12" value="service" style="rounded=1;whiteSpace=wrap;html=1;shadow=0;flipH=1;" vertex="1" parent="WIyWlLk6GJQsqaUBKTNV-1">
          <mxGeometry y="230" width="120" height="40" as="geometry" />
        </mxCell>
        <mxCell id="VAbePePrgSVZJEQ0e8aC-21" style="edgeStyle=orthogonalEdgeStyle;rounded=0;orthogonalLoop=1;jettySize=auto;html=1;exitX=0.5;exitY=0;exitDx=0;exitDy=0;" edge="1" parent="WIyWlLk6GJQsqaUBKTNV-1" source="VAbePePrgSVZJEQ0e8aC-13">
          <mxGeometry relative="1" as="geometry">
            <mxPoint x="380" y="120" as="targetPoint" />
          </mxGeometry>
        </mxCell>
        <mxCell id="VAbePePrgSVZJEQ0e8aC-13" value="repository/mapper" style="rounded=1;whiteSpace=wrap;html=1;shadow=0;flipH=1;" vertex="1" parent="WIyWlLk6GJQsqaUBKTNV-1">
          <mxGeometry x="160" y="230" width="120" height="40" as="geometry" />
        </mxCell>
        <mxCell id="VAbePePrgSVZJEQ0e8aC-24" style="edgeStyle=orthogonalEdgeStyle;rounded=0;orthogonalLoop=1;jettySize=auto;html=1;exitX=0.5;exitY=0;exitDx=0;exitDy=0;" edge="1" parent="WIyWlLk6GJQsqaUBKTNV-1" source="VAbePePrgSVZJEQ0e8aC-14">
          <mxGeometry relative="1" as="geometry">
            <mxPoint x="380" y="120" as="targetPoint" />
          </mxGeometry>
        </mxCell>
        <mxCell id="VAbePePrgSVZJEQ0e8aC-48" value="" style="edgeStyle=orthogonalEdgeStyle;rounded=0;orthogonalLoop=1;jettySize=auto;html=1;" edge="1" parent="WIyWlLk6GJQsqaUBKTNV-1" source="VAbePePrgSVZJEQ0e8aC-14" target="VAbePePrgSVZJEQ0e8aC-47">
          <mxGeometry relative="1" as="geometry" />
        </mxCell>
        <mxCell id="VAbePePrgSVZJEQ0e8aC-14" value="exception" style="rounded=1;whiteSpace=wrap;html=1;shadow=0;flipH=1;" vertex="1" parent="WIyWlLk6GJQsqaUBKTNV-1">
          <mxGeometry x="480" y="230" width="120" height="40" as="geometry" />
        </mxCell>
        <mxCell id="VAbePePrgSVZJEQ0e8aC-28" style="edgeStyle=orthogonalEdgeStyle;rounded=0;orthogonalLoop=1;jettySize=auto;html=1;exitX=0.5;exitY=0;exitDx=0;exitDy=0;" edge="1" parent="WIyWlLk6GJQsqaUBKTNV-1" source="VAbePePrgSVZJEQ0e8aC-15">
          <mxGeometry relative="1" as="geometry">
            <mxPoint x="380" y="120" as="targetPoint" />
          </mxGeometry>
        </mxCell>
        <mxCell id="VAbePePrgSVZJEQ0e8aC-15" value="aspect" style="rounded=1;whiteSpace=wrap;html=1;shadow=0;flipH=1;" vertex="1" parent="WIyWlLk6GJQsqaUBKTNV-1">
          <mxGeometry x="320" y="230" width="120" height="40" as="geometry" />
        </mxCell>
        <mxCell id="VAbePePrgSVZJEQ0e8aC-25" style="edgeStyle=orthogonalEdgeStyle;rounded=0;orthogonalLoop=1;jettySize=auto;html=1;exitX=0.5;exitY=0;exitDx=0;exitDy=0;entryX=0.5;entryY=1;entryDx=0;entryDy=0;" edge="1" parent="WIyWlLk6GJQsqaUBKTNV-1" source="VAbePePrgSVZJEQ0e8aC-16" target="WIyWlLk6GJQsqaUBKTNV-3">
          <mxGeometry relative="1" as="geometry" />
        </mxCell>
        <mxCell id="VAbePePrgSVZJEQ0e8aC-16" value="config" style="rounded=1;whiteSpace=wrap;html=1;shadow=0;flipH=1;" vertex="1" parent="WIyWlLk6GJQsqaUBKTNV-1">
          <mxGeometry x="640" y="230" width="120" height="40" as="geometry" />
        </mxCell>
        <mxCell id="VAbePePrgSVZJEQ0e8aC-37" style="edgeStyle=orthogonalEdgeStyle;rounded=0;orthogonalLoop=1;jettySize=auto;html=1;exitX=0.5;exitY=0;exitDx=0;exitDy=0;" edge="1" parent="WIyWlLk6GJQsqaUBKTNV-1" source="VAbePePrgSVZJEQ0e8aC-17">
          <mxGeometry relative="1" as="geometry">
            <mxPoint x="380" y="120" as="targetPoint" />
          </mxGeometry>
        </mxCell>
        <mxCell id="VAbePePrgSVZJEQ0e8aC-17" value="interceptor" style="rounded=1;whiteSpace=wrap;html=1;shadow=0;flipH=1;" vertex="1" parent="WIyWlLk6GJQsqaUBKTNV-1">
          <mxGeometry x="800" y="230" width="120" height="40" as="geometry" />
        </mxCell>
        <mxCell id="VAbePePrgSVZJEQ0e8aC-39" style="edgeStyle=orthogonalEdgeStyle;rounded=0;orthogonalLoop=1;jettySize=auto;html=1;exitX=0.5;exitY=0;exitDx=0;exitDy=0;" edge="1" parent="WIyWlLk6GJQsqaUBKTNV-1" source="VAbePePrgSVZJEQ0e8aC-34">
          <mxGeometry relative="1" as="geometry">
            <mxPoint x="380" y="120" as="targetPoint" />
          </mxGeometry>
        </mxCell>
        <mxCell id="VAbePePrgSVZJEQ0e8aC-34" value="filter" style="rounded=1;whiteSpace=wrap;html=1;shadow=0;flipH=1;" vertex="1" parent="WIyWlLk6GJQsqaUBKTNV-1">
          <mxGeometry x="960" y="230" width="120" height="40" as="geometry" />
        </mxCell>
        <mxCell id="VAbePePrgSVZJEQ0e8aC-41" value="" style="endArrow=classic;startArrow=classic;html=1;rounded=0;entryX=0;entryY=0.5;entryDx=0;entryDy=0;exitX=1;exitY=0.5;exitDx=0;exitDy=0;" edge="1" parent="WIyWlLk6GJQsqaUBKTNV-1" source="VAbePePrgSVZJEQ0e8aC-17" target="VAbePePrgSVZJEQ0e8aC-34">
          <mxGeometry width="50" height="50" relative="1" as="geometry">
            <mxPoint x="930" y="250" as="sourcePoint" />
            <mxPoint x="650" y="210" as="targetPoint" />
          </mxGeometry>
        </mxCell>
        <mxCell id="VAbePePrgSVZJEQ0e8aC-42" value="OR" style="text;html=1;strokeColor=none;fillColor=none;align=center;verticalAlign=middle;whiteSpace=wrap;rounded=0;" vertex="1" parent="WIyWlLk6GJQsqaUBKTNV-1">
          <mxGeometry x="910" y="200" width="60" height="30" as="geometry" />
        </mxCell>
        <mxCell id="VAbePePrgSVZJEQ0e8aC-43" value="" style="endArrow=classic;html=1;rounded=0;entryX=1;entryY=0.5;entryDx=0;entryDy=0;exitX=0;exitY=0.5;exitDx=0;exitDy=0;" edge="1" parent="WIyWlLk6GJQsqaUBKTNV-1" source="VAbePePrgSVZJEQ0e8aC-17" target="VAbePePrgSVZJEQ0e8aC-16">
          <mxGeometry width="50" height="50" relative="1" as="geometry">
            <mxPoint x="600" y="260" as="sourcePoint" />
            <mxPoint x="650" y="210" as="targetPoint" />
          </mxGeometry>
        </mxCell>
        <mxCell id="VAbePePrgSVZJEQ0e8aC-44" value="WebConfig" style="text;html=1;strokeColor=none;fillColor=none;align=center;verticalAlign=middle;whiteSpace=wrap;rounded=0;" vertex="1" parent="WIyWlLk6GJQsqaUBKTNV-1">
          <mxGeometry x="750" y="200" width="60" height="30" as="geometry" />
        </mxCell>
        <mxCell id="VAbePePrgSVZJEQ0e8aC-47" value="GlobalException" style="rounded=1;whiteSpace=wrap;html=1;shadow=0;flipH=1;" vertex="1" parent="WIyWlLk6GJQsqaUBKTNV-1">
          <mxGeometry x="480" y="310" width="120" height="40" as="geometry" />
        </mxCell>
        <mxCell id="VAbePePrgSVZJEQ0e8aC-51" value="" style="endArrow=classic;html=1;rounded=0;exitX=0.5;exitY=1;exitDx=0;exitDy=0;entryX=0.5;entryY=1;entryDx=0;entryDy=0;" edge="1" parent="WIyWlLk6GJQsqaUBKTNV-1" source="VAbePePrgSVZJEQ0e8aC-15" target="VAbePePrgSVZJEQ0e8aC-12">
          <mxGeometry width="50" height="50" relative="1" as="geometry">
            <mxPoint x="430" y="260" as="sourcePoint" />
            <mxPoint x="-30" y="340" as="targetPoint" />
            <Array as="points">
              <mxPoint x="380" y="340" />
              <mxPoint x="60" y="340" />
            </Array>
          </mxGeometry>
        </mxCell>
        <mxCell id="VAbePePrgSVZJEQ0e8aC-67" style="edgeStyle=orthogonalEdgeStyle;rounded=0;orthogonalLoop=1;jettySize=auto;html=1;exitX=0.5;exitY=0;exitDx=0;exitDy=0;" edge="1" parent="WIyWlLk6GJQsqaUBKTNV-1" source="VAbePePrgSVZJEQ0e8aC-52">
          <mxGeometry relative="1" as="geometry">
            <mxPoint x="380" y="120" as="targetPoint" />
          </mxGeometry>
        </mxCell>
        <mxCell id="VAbePePrgSVZJEQ0e8aC-52" value="resources" style="rounded=1;whiteSpace=wrap;html=1;shadow=0;flipH=1;" vertex="1" parent="WIyWlLk6GJQsqaUBKTNV-1">
          <mxGeometry x="-320" y="230" width="120" height="40" as="geometry" />
        </mxCell>
        <mxCell id="VAbePePrgSVZJEQ0e8aC-56" value="" style="edgeStyle=orthogonalEdgeStyle;rounded=0;orthogonalLoop=1;jettySize=auto;html=1;" edge="1" parent="WIyWlLk6GJQsqaUBKTNV-1" source="VAbePePrgSVZJEQ0e8aC-53">
          <mxGeometry relative="1" as="geometry">
            <mxPoint x="-240" y="360" as="targetPoint" />
          </mxGeometry>
        </mxCell>
        <mxCell id="VAbePePrgSVZJEQ0e8aC-57" value="com.zanewnch.fullproject.mapper" style="rounded=1;whiteSpace=wrap;html=1;shadow=0;flipH=1;" vertex="1" parent="WIyWlLk6GJQsqaUBKTNV-1">
          <mxGeometry x="-480" y="320" width="200" height="40" as="geometry" />
        </mxCell>
        <mxCell id="VAbePePrgSVZJEQ0e8aC-58" value="static" style="rounded=1;whiteSpace=wrap;html=1;shadow=0;flipH=1;" vertex="1" parent="WIyWlLk6GJQsqaUBKTNV-1">
          <mxGeometry x="-240" y="320" width="120" height="40" as="geometry" />
        </mxCell>
        <mxCell id="VAbePePrgSVZJEQ0e8aC-61" value="" style="endArrow=classic;html=1;rounded=0;exitX=0.5;exitY=1;exitDx=0;exitDy=0;entryX=0.5;entryY=0;entryDx=0;entryDy=0;" edge="1" parent="WIyWlLk6GJQsqaUBKTNV-1" source="VAbePePrgSVZJEQ0e8aC-52" target="VAbePePrgSVZJEQ0e8aC-57">
          <mxGeometry width="50" height="50" relative="1" as="geometry">
            <mxPoint x="-150" y="290" as="sourcePoint" />
            <mxPoint x="-100" y="240" as="targetPoint" />
            <Array as="points">
              <mxPoint x="-260" y="290" />
              <mxPoint x="-380" y="290" />
            </Array>
          </mxGeometry>
        </mxCell>
        <mxCell id="VAbePePrgSVZJEQ0e8aC-62" value="" style="endArrow=classic;html=1;rounded=0;entryX=0.5;entryY=0;entryDx=0;entryDy=0;" edge="1" parent="WIyWlLk6GJQsqaUBKTNV-1" target="VAbePePrgSVZJEQ0e8aC-58">
          <mxGeometry width="50" height="50" relative="1" as="geometry">
            <mxPoint x="-260" y="270" as="sourcePoint" />
            <mxPoint x="-100" y="240" as="targetPoint" />
            <Array as="points">
              <mxPoint x="-260" y="290" />
              <mxPoint x="-220" y="290" />
              <mxPoint x="-180" y="290" />
            </Array>
          </mxGeometry>
        </mxCell>
        <mxCell id="VAbePePrgSVZJEQ0e8aC-64" value="Completed frontend file" style="text;html=1;strokeColor=none;fillColor=none;align=left;verticalAlign=middle;whiteSpace=wrap;rounded=0;" vertex="1" parent="WIyWlLk6GJQsqaUBKTNV-1">
          <mxGeometry x="-110" y="325" width="60" height="30" as="geometry" />
        </mxCell>
        <mxCell id="VAbePePrgSVZJEQ0e8aC-68" value="我先完整學完backend, 然後繪製流程圖跟document;&lt;br&gt;因為我現在直接話flow chart 遇到的問題就是我有很多comment要寫&amp;nbsp; 但不能直接寫在flow chart上面" style="text;html=1;strokeColor=none;fillColor=none;align=center;verticalAlign=middle;whiteSpace=wrap;rounded=0;" vertex="1" parent="WIyWlLk6GJQsqaUBKTNV-1">
          <mxGeometry x="150" y="540" width="140" height="120" as="geometry" />
        </mxCell>
      </root>
    </mxGraphModel>
  </diagram>
</mxfile>
